<?xml version="1.0" standalone="no"?><!DOCTYPE svg PUBLIC "-//W3C//DTD SVG 1.1//EN" "http://www.w3.org/Graphics/SVG/1.1/DTD/svg11.dtd"><svg t="1748141186684" class="icon" viewBox="0 0 1024 1024" version="1.1" xmlns="http://www.w3.org/2000/svg" p-id="1091" xmlns:xlink="http://www.w3.org/1999/xlink" width="200" height="200"><path d="M80 298.496l394.624 190.656c10.24 4.864 24.064 7.488 37.568 7.488 13.568 0 27.328-2.56 37.568-7.488l394.624-190.656c20.8-9.984 20.8-26.368 0-36.416L549.824 71.488A90.624 90.624 0 0 0 512.192 64c-13.44 0-27.264 2.56-37.504 7.488L80 262.144c-20.736 9.984-20.736 26.368 0 36.352z m864.448 195.264L862.784 454.4c-9.536-4.672-12.16-4.416-22.144 0.256-9.984 4.672-291.136 140.48-291.136 140.48A91.328 91.328 0 0 1 512 602.56a90.88 90.88 0 0 1-37.568-7.488S200.832 462.976 188.032 456.704c-13.952-6.784-17.92-6.784-30.592-0.64l-77.888 37.504c-20.736 9.984-20.736 26.368 0 36.416l394.624 190.592c10.24 4.928 24.064 7.488 37.568 7.488 13.504 0 27.328-2.56 37.568-7.488L944 529.92c21.248-9.792 21.248-26.112 0.512-36.16z m0 231.68l-81.664-39.36c-9.536-4.672-12.16-4.48-22.144 0.192-9.984 4.672-290.88 140.736-290.88 140.736a92.224 92.224 0 0 1-37.568 7.424c-13.44 0-27.264-2.56-37.504-7.488 0 0-273.664-132.032-286.464-138.304-13.952-6.784-17.92-6.784-30.528-0.704l-77.952 37.568c-20.736 9.984-20.736 26.368 0 36.352l394.688 190.656c10.24 5.12 24.064 7.488 37.568 7.488 13.44 0 27.328-2.56 37.504-7.488l394.688-190.656c20.928-9.984 20.928-26.304 0.256-36.416z" fill="#505766" p-id="1092"></path></svg>